{"title":"Kokanastha 2013 Marathi 1080p Untouched WebHD x264 AAC [TMB]","uid":15559565,"size":4644595797,"categoryP":"video","categoryS":"movies","magnet":"?xt=urn:btih:e1f13d6d22faf500e1c66109b841617d076a0eea&amp;dn=Kokanastha+2013+Marathi+1080p+Untouched+WebHD+x264+AAC+%5BTMB%5D&amp;tr=udp%3A%2F%2Ftracker.leechers-paradise.org%3A6969&amp;tr=udp%3A%2F%2Fzer0day.ch%3A1337&amp;tr=udp%3A%2F%2Fopen.demonii.com%3A1337&amp;tr=udp%3A%2F%2Ftracker.coppersurfer.tk%3A6969&amp;tr=udp%3A%2F%2Fexodus.desync.com%3A6969","seeders":0,"leechers":1,"uploader":"Manoj_vb","files":1,"time":1471111288,"description":"http://i1306.photobucket.com/albums/s570/zyx55e/44_zpsc46e809d.gif\r\n \nhttps://postimg.org/image/u0ul9yarf/\r\n \nhttps://postimg.org/image/szuckttrv/\r\n \nhttps://postimg.org/image/qwjxd5tyz/\r\n \nhttps://postimg.org/image/yqkiyk1rv/\r\n \nhttps://postimg.org/image/fy961vyt7/\r\n \nhttps://postimg.org/image/duyqu7z0b/\r\n \nhttps://postimg.org/image/9ackfafaz/\r\n \nhttps://postimg.org/image/ijeqpeo6z/\r\n \nhttps://postimg.org/image/m4am8msqj/\r\n \nhttps://postimg.org/image/5ht1zjzsr/\r\n \nhttp://i1306.photobucket.com/albums/s570/zyx55e/oie_11162011MOJeDGQI_zpsc25b2b81.gif\r\n\r\nGeneral\r\nComplete name               : Kokanastha 2013 1080p Untouched WebHD x264 AAC [TMB].mp4\r\nFormat                      : MPEG-4\r\nFormat profile              : Base Media\r\nCodec ID                    : isom (isom/iso2/avc1/mp41)\r\nFile size                   : 4.33 GiB\r\nDuration                    : 2h 15mn\r\nOverall bit rate mode       : Variable\r\nOverall bit rate            : 4 568 Kbps\r\nWriting application         : Lavf56.40.101\r\n\r\nVideo\r\nFormat                      : AVC\r\nFormat/Info                 : Advanced Video Codec\r\nFormat profile              :   \r\nFormat settings, CABAC      : Yes\r\nFormat settings, ReFrames   : 1 frame\r\nFormat settings, GOP        : M=1, N=25\r\nCodec ID                    : avc1\r\nCodec ID/Info               : Advanced Video Coding\r\nDuration                    : 2h 15mn\r\nBit rate mode               : Constant\r\nBit rate                    : 4 500 Kbps\r\nWidth                       : 1 920 pixels\r\nHeight                      : 1 080 pixels\r\nDisplay aspect ratio        : 16:9\r\nFrame rate mode             : Constant\r\nFrame rate                  : 25.000 fps\r\nColor space                 : YUV\r\nChroma subsampling          : 4:2:0\r\nBit depth                   : 8 bits\r\nScan type                   : Progressive\r\nBits/(Pixel*Frame)          : 0.087\r\nStream size                 : 4.26 GiB (99%)\r\n\r\nAudio\r\nFormat                      : AAC\r\nFormat/Info                 : Advanced Audio Codec\r\nFormat profile              : LC\r\nCodec ID                    : 40\r\nDuration                    : 2h 15mn\r\nBit rate mode               : Variable\r\nBit rate                    : 61.4 Kbps\r\nMaximum bit rate            : 63.8 Kbps\r\nChannel(s)                  : 2 channels\r\nChannel positions           : Front: L R\r\nSampling rate               : 48.0 KHz\r\nFrame rate                  : 46.875 fps (1024 spf)\r\nCompression mode            : Lossy\r\nStream size                 : 59.5 MiB (1%)\r\n\r\nUploaded &amp; Shared by Manojvb\r\n\r\nSeeding 24x7... Extreme Seeding...\r\n\r\n \nhttp://i1306.photobucket.com/albums/s570/zyx55e/oie_1117625zVIGKvnK_zpsc8b6e055.gif","torrent":{"xt":"urn:btih:e1f13d6d22faf500e1c66109b841617d076a0eea","amp;dn":"Kokanastha+2013+Marathi+1080p+Untouched+WebHD+x264+AAC+%5BTMB%5D","amp;tr":["udp%3A%2F%2Ftracker.leechers-paradise.org%3A6969","udp%3A%2F%2Fzer0day.ch%3A1337","udp%3A%2F%2Fopen.demonii.com%3A1337","udp%3A%2F%2Ftracker.coppersurfer.tk%3A6969","udp%3A%2F%2Fexodus.desync.com%3A6969"],"infoHash":"e1f13d6d22faf500e1c66109b841617d076a0eea","infoHashBuffer":{"type":"Buffer","data":[225,241,61,109,34,250,245,0,225,198,97,9,184,65,97,125,7,106,14,234]},"announce":[],"urlList":[]}}